<svg width="178" height="14" viewBox="0 0 178 14" fill="none" xmlns="http://www.w3.org/2000/svg">
<path d="M7.33703 2.98959L4.24686 13H0.965181L5.6222 0.325945H7.70263L7.33703 2.98959ZM9.89621 13L6.79734 2.98959L6.39692 0.325945H8.50346L13.1866 13H9.89621ZM9.77435 8.27334V10.6323H3.27193V8.27334H9.77435ZM15.6326 0.325945H18.1222L20.9512 9.14381L23.7802 0.325945H26.2698L21.9609 13H19.9414L15.6326 0.325945ZM14.118 0.325945H16.6946L17.1733 10.0404V13H14.118V0.325945ZM25.2078 0.325945H27.7931V13H24.729V10.0404L25.2078 0.325945ZM35.2791 2.98959L32.189 13H28.9073L33.5643 0.325945H35.6447L35.2791 2.98959ZM37.8383 13L34.7394 2.98959L34.339 0.325945H36.4456L41.1287 13H37.8383ZM37.7165 8.27334V10.6323H31.214V8.27334H37.7165ZM51.5482 10.6497V13H42.3735V10.6497H51.5482ZM51.4873 1.89279L43.8881 13H41.6771V11.3896L49.3634 0.325945H51.4873V1.89279ZM50.5037 0.325945V2.68492H41.6336V0.325945H50.5037ZM56.1878 0.325945V13H53.1412V0.325945H56.1878ZM68.9228 0.325945V13H65.8762L61.3933 5.11353V13H58.3379V0.325945H61.3933L65.8762 8.21241V0.325945H68.9228ZM81.2226 6.22774V11.4332C81.0079 11.6711 80.6771 11.9264 80.2303 12.1992C79.7892 12.4661 79.2321 12.6953 78.559 12.8868C77.8858 13.0783 77.0937 13.1741 76.1826 13.1741C75.3411 13.1741 74.578 13.0406 73.8932 12.7737C73.2085 12.5009 72.6194 12.1034 72.1262 11.5811C71.6387 11.053 71.2615 10.4089 70.9946 9.64869C70.7334 8.88267 70.6028 8.0064 70.6028 7.01987V6.31478C70.6028 5.32825 70.7363 4.45198 71.0033 3.68596C71.2702 2.91995 71.6445 2.2758 72.1262 1.75352C72.6136 1.22543 73.1852 0.825015 73.841 0.552268C74.5026 0.27952 75.2279 0.143146 76.0172 0.143146C77.1836 0.143146 78.1324 0.328847 78.8636 0.700248C79.5948 1.06585 80.149 1.57362 80.5262 2.22357C80.9034 2.86772 81.1326 3.61342 81.2139 4.46068H78.2804C78.2224 4.04286 78.1121 3.68886 77.9496 3.39871C77.7929 3.10275 77.5666 2.87933 77.2707 2.72844C76.9747 2.57176 76.5917 2.49342 76.1216 2.49342C75.756 2.49342 75.4224 2.57176 75.1206 2.72844C74.8246 2.88513 74.5722 3.12306 74.3633 3.44223C74.1544 3.7556 73.9919 4.15021 73.8758 4.62607C73.7656 5.10193 73.7104 5.65903 73.7104 6.29737V7.01987C73.7104 7.65241 73.7627 8.20661 73.8671 8.68246C73.9774 9.15832 74.1399 9.55584 74.3546 9.87501C74.5751 10.1884 74.8536 10.4263 75.1902 10.5888C75.5326 10.7455 75.9359 10.8238 76.4002 10.8238C76.7252 10.8238 77.0037 10.7977 77.2358 10.7455C77.468 10.6874 77.6595 10.6178 77.8103 10.5366C77.967 10.4495 78.086 10.3683 78.1672 10.2928V8.32557H76.0433V6.22774H81.2226ZM88.9611 0.325945H91.4506L94.2797 9.14381L97.1087 0.325945H99.5982L95.2894 13H93.2699L88.9611 0.325945ZM87.4465 0.325945H90.023L90.5018 10.0404V13H87.4465V0.325945ZM98.5363 0.325945H101.122V13H98.0575V10.0404L98.5363 0.325945ZM113.804 6.41054V6.92411C113.804 7.89324 113.668 8.76371 113.395 9.53553C113.128 10.3015 112.748 10.9573 112.255 11.5028C111.762 12.0425 111.178 12.4574 110.505 12.7476C109.832 13.0319 109.089 13.1741 108.277 13.1741C107.459 13.1741 106.71 13.0319 106.031 12.7476C105.358 12.4574 104.772 12.0425 104.273 11.5028C103.779 10.9573 103.396 10.3015 103.124 9.53553C102.857 8.76371 102.723 7.89324 102.723 6.92411V6.41054C102.723 5.44141 102.857 4.57094 103.124 3.79912C103.396 3.02731 103.776 2.37155 104.264 1.83186C104.757 1.28636 105.34 0.87144 106.014 0.587086C106.693 0.29693 107.441 0.151851 108.259 0.151851C109.072 0.151851 109.815 0.29693 110.488 0.587086C111.167 0.87144 111.753 1.28636 112.246 1.83186C112.739 2.37155 113.122 3.02731 113.395 3.79912C113.668 4.57094 113.804 5.44141 113.804 6.41054ZM110.705 6.92411V6.39313C110.705 5.76639 110.65 5.21509 110.54 4.73923C110.436 4.25757 110.279 3.85425 110.07 3.52928C109.861 3.2043 109.603 2.96057 109.295 2.79808C108.994 2.62979 108.648 2.54565 108.259 2.54565C107.853 2.54565 107.499 2.62979 107.197 2.79808C106.896 2.96057 106.643 3.2043 106.44 3.52928C106.237 3.85425 106.083 4.25757 105.979 4.73923C105.88 5.21509 105.831 5.76639 105.831 6.39313V6.92411C105.831 7.54505 105.88 8.09635 105.979 8.57801C106.083 9.05387 106.237 9.45718 106.44 9.78796C106.649 10.1187 106.904 10.3683 107.206 10.5366C107.514 10.7049 107.871 10.789 108.277 10.789C108.666 10.789 109.011 10.7049 109.313 10.5366C109.614 10.3683 109.867 10.1187 110.07 9.78796C110.279 9.45718 110.436 9.05387 110.54 8.57801C110.65 8.09635 110.705 7.54505 110.705 6.92411ZM122.265 0.325945H125.321V8.60412C125.321 9.59066 125.115 10.4263 124.703 11.1111C124.291 11.79 123.713 12.3036 122.97 12.6518C122.228 13 121.354 13.1741 120.35 13.1741C119.358 13.1741 118.485 13 117.73 12.6518C116.982 12.3036 116.395 11.79 115.972 11.1111C115.554 10.4263 115.345 9.59066 115.345 8.60412V0.325945H118.409V8.60412C118.409 9.1264 118.485 9.55294 118.635 9.88371C118.786 10.2087 119.007 10.4466 119.297 10.5975C119.587 10.7484 119.938 10.8238 120.35 10.8238C120.768 10.8238 121.119 10.7484 121.404 10.5975C121.688 10.4466 121.903 10.2087 122.048 9.88371C122.193 9.55294 122.265 9.1264 122.265 8.60412V0.325945ZM137.829 0.325945V13H134.783L130.3 5.11353V13H127.244V0.325945H130.3L134.783 8.21241V0.325945H137.829ZM145.637 0.325945V13H142.582V0.325945H145.637ZM149.45 0.325945V2.68492H138.856V0.325945H149.45ZM155.056 2.98959L151.966 13H148.684L153.341 0.325945H155.422L155.056 2.98959ZM157.615 13L154.516 2.98959L154.116 0.325945H156.222L160.905 13H157.615ZM157.493 8.27334V10.6323H150.991V8.27334H157.493ZM165.084 0.325945V13H162.037V0.325945H165.084ZM177.819 0.325945V13H174.772L170.289 5.11353V13H167.234V0.325945H170.289L174.772 8.21241V0.325945H177.819Z" fill="#0C0E36"/>
</svg>
